<svg xmlns="http://www.w3.org/2000/svg" viewBox="0 0 48 48">
  <ellipse cx="24" cy="46" rx="10" ry="3" fill="rgba(0,0,0,0.22)"/>
  <!-- 足 -->
  <rect x="16" y="36" width="6" height="10" rx="2" fill="#8a2000" stroke="#5a0000" stroke-width="1"/>
  <rect x="26" y="36" width="6" height="10" rx="2" fill="#8a2000" stroke="#5a0000" stroke-width="1"/>
  <!-- 斧（右手） -->
  <line x1="36" y1="18" x2="44" y2="8" stroke="#888" stroke-width="2.5" stroke-linecap="round"/>
  <path d="M40,6 Q46,4 46,10 Q46,16 40,14 L38,10Z" fill="#aaa" stroke="#666" stroke-width="1"/>
  <!-- 盾（左手） -->
  <path d="M10,16 Q6,18 6,26 Q6,32 12,34 Q12,26 12,16Z" fill="#8a4000" stroke="#5a2000" stroke-width="1.2"/>
  <path d="M7,20 Q7,28 12,32 Q12,24 12,18Z" fill="#aa5500" opacity="0.5"/>
  <!-- 腕 -->
  <rect x="8"  y="18" width="8" height="5" rx="2" fill="#cc3300" stroke="#8a0000" stroke-width="1"/>
  <rect x="32" y="16" width="8" height="5" rx="2" fill="#cc3300" stroke="#8a0000" stroke-width="1"/>
  <!-- 胴体（鎧） -->
  <rect x="14" y="22" width="20" height="16" rx="3" fill="#aa2200" stroke="#6a0000" stroke-width="1.4"/>
  <!-- 鎧の紋様 -->
  <path d="M14,28 L34,28" stroke="#6a0000" stroke-width="1"/>
  <path d="M24,22 L24,38" stroke="#6a0000" stroke-width="1"/>
  <circle cx="24" cy="28" r="3" fill="#cc4400" stroke="#8a0000" stroke-width="0.8"/>
  <!-- 首 -->
  <rect x="20" y="17" width="8" height="6" rx="2" fill="#cc3300" stroke="#8a0000" stroke-width="1"/>
  <!-- 兜 -->
  <path d="M13,14 Q14,8 24,7 Q34,8 35,14 L33,16 L24,15 L15,16Z" fill="#777" stroke="#444" stroke-width="1.2"/>
  <rect x="14" y="14" width="20" height="6" rx="1" fill="#888" stroke="#555" stroke-width="1.2"/>
  <!-- バイザー -->
  <rect x="16" y="16" width="16" height="4" rx="1" fill="#333"/>
  <!-- 目（怒り） -->
  <ellipse cx="19" cy="18" rx="2.5" ry="1.5" fill="#ff4400"/>
  <ellipse cx="29" cy="18" rx="2.5" ry="1.5" fill="#ff4400"/>
  <!-- 角飾り -->
  <line x1="14" y1="10" x2="10" y2="4" stroke="#777" stroke-width="2" stroke-linecap="round"/>
  <line x1="34" y1="10" x2="38" y2="4" stroke="#777" stroke-width="2" stroke-linecap="round"/>
</svg>
