<svg xmlns="http://www.w3.org/2000/svg" viewBox="0 0 48 48">
  <ellipse cx="24" cy="46" rx="9" ry="2.5" fill="rgba(0,0,0,0.2)"/>
  <!-- 脚（左） -->
  <line x1="18" y1="24" x2="4" y2="18" stroke="#3d2800" stroke-width="2" stroke-linecap="round"/>
  <line x1="17" y1="26" x2="3" y2="26" stroke="#3d2800" stroke-width="2" stroke-linecap="round"/>
  <line x1="17" y1="28" x2="4" y2="34" stroke="#3d2800" stroke-width="2" stroke-linecap="round"/>
  <line x1="18" y1="30" x2="6" y2="40" stroke="#3d2800" stroke-width="2" stroke-linecap="round"/>
  <!-- 脚（右） -->
  <line x1="30" y1="24" x2="44" y2="18" stroke="#3d2800" stroke-width="2" stroke-linecap="round"/>
  <line x1="31" y1="26" x2="45" y2="26" stroke="#3d2800" stroke-width="2" stroke-linecap="round"/>
  <line x1="31" y1="28" x2="44" y2="34" stroke="#3d2800" stroke-width="2" stroke-linecap="round"/>
  <line x1="30" y1="30" x2="42" y2="40" stroke="#3d2800" stroke-width="2" stroke-linecap="round"/>
  <!-- 腹部 -->
  <ellipse cx="24" cy="33" rx="9" ry="11" fill="#5c3800" stroke="#3d2800" stroke-width="1.4"/>
  <ellipse cx="24" cy="33" rx="6" ry="8" fill="#7a4a00" opacity="0.5"/>
  <!-- 模様 -->
  <path d="M24,24 Q28,29 24,34 Q20,29 24,24Z" fill="#ffa000" opacity="0.6"/>
  <!-- 頭胸部 -->
  <ellipse cx="24" cy="20" rx="7" ry="6" fill="#6b4200" stroke="#3d2800" stroke-width="1.2"/>
  <!-- 牙（毒） -->
  <line x1="21" y1="24" x2="19" y2="28" stroke="#88ff44" stroke-width="1.5" stroke-linecap="round"/>
  <line x1="27" y1="24" x2="29" y2="28" stroke="#88ff44" stroke-width="1.5" stroke-linecap="round"/>
  <!-- 目（8つ） -->
  <circle cx="20" cy="17" r="2" fill="#ff6600"/>
  <circle cx="24" cy="15" r="2" fill="#ff6600"/>
  <circle cx="28" cy="17" r="2" fill="#ff6600"/>
  <circle cx="21" cy="20" r="1.5" fill="#ff4400"/>
  <circle cx="27" cy="20" r="1.5" fill="#ff4400"/>
  <circle cx="20" cy="17" r="0.8" fill="black"/>
  <circle cx="24" cy="15" r="0.8" fill="black"/>
  <circle cx="28" cy="17" r="0.8" fill="black"/>
</svg>
