<svg xmlns="http://www.w3.org/2000/svg" viewBox="0 0 48 48">
  <ellipse cx="24" cy="46" rx="10" ry="2.5" fill="rgba(200,80,0,0.3)"/>
  <!-- 外炎（大） -->
  <path d="M24,44 Q10,36 12,24 Q8,18 14,12 Q12,6 18,4 Q16,10 20,12 Q18,4 24,2 Q30,4 28,12 Q32,10 30,4 Q36,6 34,12 Q40,18 36,24 Q38,36 24,44Z" fill="#ff6600" opacity="0.9"/>
  <!-- 中炎 -->
  <path d="M24,42 Q13,34 15,24 Q12,18 17,14 Q15,9 20,8 Q18,14 22,15 Q20,8 24,6 Q28,8 26,15 Q30,14 28,8 Q33,9 31,14 Q36,18 33,24 Q35,34 24,42Z" fill="#ff8800"/>
  <!-- 内炎（明るい） -->
  <path d="M24,38 Q16,30 18,22 Q16,17 20,14 Q19,10 22,10 Q21,15 24,16 Q27,15 26,10 Q29,10 28,14 Q32,17 30,22 Q32,30 24,38Z" fill="#ffaa00"/>
  <!-- コア（白熱） -->
  <ellipse cx="24" cy="24" rx="6" ry="8" fill="#ffdd44" opacity="0.8"/>
  <ellipse cx="24" cy="24" rx="3" ry="5" fill="white" opacity="0.6"/>
  <!-- 目（炎の中） -->
  <ellipse cx="20" cy="22" rx="2.5" ry="3" fill="#ff2200" opacity="0.9"/>
  <ellipse cx="28" cy="22" rx="2.5" ry="3" fill="#ff2200" opacity="0.9"/>
  <ellipse cx="20" cy="21" rx="1.2" ry="1.5" fill="#ffcc00"/>
  <ellipse cx="28" cy="21" rx="1.2" ry="1.5" fill="#ffcc00"/>
  <!-- 飛び火 -->
  <circle cx="8"  cy="18" r="2"   fill="#ff6600" opacity="0.7"/>
  <circle cx="40" cy="14" r="1.5" fill="#ff8800" opacity="0.6"/>
  <circle cx="6"  cy="30" r="1.2" fill="#ff4400" opacity="0.5"/>
  <circle cx="42" cy="28" r="1.8" fill="#ff6600" opacity="0.6"/>
</svg>
