<svg xmlns="http://www.w3.org/2000/svg" viewBox="0 0 48 48">
  <ellipse cx="24" cy="46" rx="11" ry="3" fill="rgba(0,0,0,0.25)"/>
  <!-- 翼（後ろ） -->
  <path d="M16,20 Q4,12 2,4 Q8,8 14,16Z" fill="#4a4858" stroke="#2a2838" stroke-width="1"/>
  <path d="M32,20 Q44,12 46,4 Q40,8 34,16Z" fill="#4a4858" stroke="#2a2838" stroke-width="1"/>
  <!-- 翼の骨格 -->
  <path d="M14,18 Q8,10 3,5"  stroke="#2a2838" stroke-width="1.2" fill="none"/>
  <path d="M14,18 Q6,14 2,10" stroke="#2a2838" stroke-width="0.9" fill="none"/>
  <path d="M34,18 Q40,10 45,5"  stroke="#2a2838" stroke-width="1.2" fill="none"/>
  <path d="M34,18 Q42,14 46,10" stroke="#2a2838" stroke-width="0.9" fill="none"/>
  <!-- 尻尾 -->
  <path d="M28,36 Q36,34 40,38 Q38,42 34,40" stroke="#3a3848" stroke-width="2.5" stroke-linecap="round" fill="none"/>
  <!-- 足 -->
  <path d="M18,38 Q16,42 14,46" stroke="#3a3848" stroke-width="3.5" stroke-linecap="round" fill="none"/>
  <path d="M30,38 Q32,42 34,46" stroke="#3a3848" stroke-width="3.5" stroke-linecap="round" fill="none"/>
  <!-- 爪（足） -->
  <line x1="14" y1="46" x2="11" y2="44" stroke="#2a2838" stroke-width="1.5" stroke-linecap="round"/>
  <line x1="14" y1="46" x2="13" y2="48" stroke="#2a2838" stroke-width="1.5" stroke-linecap="round"/>
  <line x1="34" y1="46" x2="37" y2="44" stroke="#2a2838" stroke-width="1.5" stroke-linecap="round"/>
  <line x1="34" y1="46" x2="35" y2="48" stroke="#2a2838" stroke-width="1.5" stroke-linecap="round"/>
  <!-- 腕 -->
  <path d="M16,22 Q10,28 8,34" stroke="#4a4858" stroke-width="4.5" stroke-linecap="round" fill="none"/>
  <path d="M32,22 Q38,28 40,34" stroke="#4a4858" stroke-width="4.5" stroke-linecap="round" fill="none"/>
  <!-- 爪（手） -->
  <line x1="8"  y1="34" x2="5"  y2="31" stroke="#2a2838" stroke-width="1.5" stroke-linecap="round"/>
  <line x1="8"  y1="34" x2="5"  y2="36" stroke="#2a2838" stroke-width="1.5" stroke-linecap="round"/>
  <line x1="40" y1="34" x2="43" y2="31" stroke="#2a2838" stroke-width="1.5" stroke-linecap="round"/>
  <line x1="40" y1="34" x2="43" y2="36" stroke="#2a2838" stroke-width="1.5" stroke-linecap="round"/>
  <!-- 胴体 -->
  <ellipse cx="24" cy="30" rx="11" ry="10" fill="#5a5868" stroke="#2a2838" stroke-width="1.5"/>
  <!-- 石の質感 -->
  <path d="M14,26 Q18,22 24,24 Q30,22 34,26" stroke="#2a2838" stroke-width="0.8" fill="none" opacity="0.6"/>
  <!-- 首 -->
  <rect x="19" y="16" width="10" height="8" rx="2" fill="#5a5868" stroke="#2a2838" stroke-width="1.3"/>
  <!-- 頭 -->
  <ellipse cx="24" cy="11" rx="11" ry="9" fill="#6a6878" stroke="#2a2838" stroke-width="1.5"/>
  <!-- 角 -->
  <path d="M17,6 Q15,1 18,3"  fill="#3a3848" stroke="#2a2838" stroke-width="1"/>
  <path d="M31,6 Q33,1 30,3"  fill="#3a3848" stroke="#2a2838" stroke-width="1"/>
  <!-- 目（赤く光る） -->
  <ellipse cx="19" cy="10" rx="3" ry="2.5" fill="#110000"/>
  <ellipse cx="29" cy="10" rx="3" ry="2.5" fill="#110000"/>
  <ellipse cx="19" cy="10" rx="1.8" ry="1.5" fill="#cc0000"/>
  <ellipse cx="29" cy="10" rx="1.8" ry="1.5" fill="#cc0000"/>
  <!-- 口（牙） -->
  <path d="M18,15 Q24,18 30,15" stroke="#2a2838" stroke-width="1.5" fill="none"/>
  <line x1="21" y1="15" x2="20" y2="18" stroke="#ccc" stroke-width="1.5" stroke-linecap="round"/>
  <line x1="27" y1="15" x2="28" y2="18" stroke="#ccc" stroke-width="1.5" stroke-linecap="round"/>
</svg>
