<svg xmlns="http://www.w3.org/2000/svg" viewBox="0 0 48 48">
  <ellipse cx="22" cy="46" rx="10" ry="2.5" fill="rgba(0,0,0,0.18)"/>
  <!-- 尻尾 -->
  <path d="M32,34 Q42,30 44,22 Q45,16 40,14" fill="none" stroke="#8a6a5a" stroke-width="2" stroke-linecap="round"/>
  <!-- 後ろ足 -->
  <ellipse cx="16" cy="40" rx="5" ry="3" fill="#9a7a6a" stroke="#6a4a3a" stroke-width="1"/>
  <ellipse cx="30" cy="40" rx="5" ry="3" fill="#9a7a6a" stroke="#6a4a3a" stroke-width="1"/>
  <!-- 前足 -->
  <ellipse cx="12" cy="34" rx="3.5" ry="2" fill="#9a7a6a" stroke="#6a4a3a" stroke-width="1"/>
  <ellipse cx="30" cy="34" rx="3.5" ry="2" fill="#9a7a6a" stroke="#6a4a3a" stroke-width="1"/>
  <!-- 体 -->
  <ellipse cx="22" cy="32" rx="13" ry="10" fill="#9a7a6a" stroke="#6a4a3a" stroke-width="1.3"/>
  <!-- 毛並みの質感 -->
  <ellipse cx="22" cy="30" rx="9" ry="7" fill="#b08878" opacity="0.5"/>
  <!-- 頭 -->
  <ellipse cx="18" cy="20" rx="10" ry="8" fill="#9a7a6a" stroke="#6a4a3a" stroke-width="1.3"/>
  <!-- 鼻（大きい） -->
  <ellipse cx="10" cy="22" rx="4" ry="3" fill="#cc8888" stroke="#6a4a3a" stroke-width="1"/>
  <circle cx="9"  cy="21" r="1.2" fill="#443a38"/>
  <circle cx="11" cy="23" r="1.2" fill="#443a38"/>
  <!-- 耳 -->
  <ellipse cx="22" cy="13" rx="5" ry="4" fill="#cc9988" stroke="#6a4a3a" stroke-width="1"/>
  <ellipse cx="22" cy="13" rx="3" ry="2.5" fill="#ffaaaa" opacity="0.7"/>
  <!-- 目 -->
  <circle cx="14" cy="18" r="3" fill="#1a1a1a"/>
  <circle cx="14" cy="18" r="1.5" fill="#cc2200"/>
  <circle cx="14.8" cy="17" r="0.8" fill="white"/>
  <!-- ひげ -->
  <line x1="10" y1="20" x2="2"  y2="17" stroke="#ccc" stroke-width="0.8"/>
  <line x1="10" y1="22" x2="2"  y2="22" stroke="#ccc" stroke-width="0.8"/>
  <line x1="10" y1="24" x2="2"  y2="26" stroke="#ccc" stroke-width="0.8"/>
</svg>
