<svg xmlns="http://www.w3.org/2000/svg" viewBox="0 0 48 48">
  <ellipse cx="24" cy="46" rx="12" ry="3" fill="rgba(0,0,0,0.2)"/>
  <!-- 左翼（大きい） -->
  <path d="M24,20 Q10,10 2,13 Q7,18 9,26 Q14,20 24,25Z" fill="#2a1a2e" stroke="#1a0a1e" stroke-width="1.2"/>
  <path d="M9,26 Q5,32 7,38 Q12,30 20,29Z" fill="#2a1a2e" stroke="#1a0a1e" stroke-width="1"/>
  <!-- 右翼（大きい） -->
  <path d="M24,20 Q38,10 46,13 Q41,18 39,26 Q34,20 24,25Z" fill="#2a1a2e" stroke="#1a0a1e" stroke-width="1.2"/>
  <path d="M39,26 Q43,32 41,38 Q36,30 28,29Z" fill="#2a1a2e" stroke="#1a0a1e" stroke-width="1"/>
  <!-- 翼筋 -->
  <line x1="24" y1="20" x2="6" y2="32" stroke="#1a0a1e" stroke-width="0.8" opacity="0.7"/>
  <line x1="24" y1="20" x2="42" y2="32" stroke="#1a0a1e" stroke-width="0.8" opacity="0.7"/>
  <!-- 体（大きい） -->
  <ellipse cx="24" cy="22" rx="9" ry="11" fill="#3a2535" stroke="#1a0a1e" stroke-width="1.4"/>
  <!-- 耳 -->
  <polygon points="17,12 15,5 21,11" fill="#3a2535" stroke="#1a0a1e" stroke-width="1.2"/>
  <polygon points="31,12 33,5 27,11" fill="#3a2535" stroke="#1a0a1e" stroke-width="1.2"/>
  <polygon points="17.5,11.5 16,7 20.5,11" fill="#aa5566"/>
  <polygon points="30.5,11.5 32,7 27.5,11" fill="#aa5566"/>
  <!-- 目（赤く輝く） -->
  <ellipse cx="19" cy="20" rx="3.5" ry="4" fill="#ff2200"/>
  <ellipse cx="29" cy="20" rx="3.5" ry="4" fill="#ff2200"/>
  <ellipse cx="19" cy="20" rx="2" ry="2.5" fill="#800"/>
  <ellipse cx="29" cy="20" rx="2" ry="2.5" fill="#800"/>
  <ellipse cx="20" cy="18.5" rx="1" ry="1.2" fill="rgba(255,180,180,0.8)"/>
  <ellipse cx="30" cy="18.5" rx="1" ry="1.2" fill="rgba(255,180,180,0.8)"/>
  <!-- 口 -->
  <path d="M20,29 Q24,32 28,29" stroke="#1a0a1e" stroke-width="1.2" fill="none"/>
  <line x1="21" y1="29.5" x2="20" y2="34" stroke="white" stroke-width="1.4" stroke-linecap="round"/>
  <line x1="27" y1="29.5" x2="28" y2="34" stroke="white" stroke-width="1.4" stroke-linecap="round"/>
</svg>
