<svg xmlns="http://www.w3.org/2000/svg" viewBox="0 0 48 48">
  <!-- ── ゴブリン（ディスガイア風SD チビ悪役） ── -->

  <!-- 影 -->
  <ellipse cx="24" cy="46" rx="11" ry="3" fill="rgba(0,0,0,0.22)"/>

  <!-- マント（薄汚れた布） -->
  <path d="M15,30 Q10,37 12,44 L16,42 Q13,37 15,32Z" fill="#6b4c1a" stroke="#3a2800" stroke-width="0.8"/>
  <path d="M33,30 Q38,37 36,44 L32,42 Q35,37 33,32Z" fill="#6b4c1a" stroke="#3a2800" stroke-width="0.8"/>

  <!-- 足・ブーツ（ボロい） -->
  <rect x="17" y="39" width="6" height="8" rx="1.5" fill="#2a1800" stroke="#1a0c00" stroke-width="1"/>
  <rect x="25" y="39" width="6" height="8" rx="1.5" fill="#2a1800" stroke="#1a0c00" stroke-width="1"/>

  <!-- 胴体（革鎧） -->
  <rect x="13" y="27" width="22" height="14" rx="3" fill="#5a7a30" stroke="#304010" stroke-width="1.2"/>
  <!-- 革鎧ディテール -->
  <rect x="17" y="29" width="14" height="9" rx="1.5" fill="#486228" stroke="#304010" stroke-width="0.7"/>
  <!-- ベルト -->
  <rect x="13" y="34" width="22" height="3" fill="#8b5e1c" stroke="#5a3800" stroke-width="0.8"/>
  <rect x="22" y="33" width="4"  height="5" rx="1" fill="#c08030" stroke="#8a5000" stroke-width="0.8"/>
  <!-- 肩ガード（かじられた感） -->
  <rect x="9"  y="27" width="7" height="5" rx="2" fill="#4a6820" stroke="#304010" stroke-width="1"/>
  <rect x="32" y="27" width="7" height="5" rx="2" fill="#4a6820" stroke="#304010" stroke-width="1"/>

  <!-- 短剣（右側） -->
  <rect x="36" y="20" width="3"  height="16" rx="1" fill="#a8a8a8" stroke="#606060" stroke-width="0.8"/>
  <rect x="33" y="24" width="9"  height="2.5" rx="1" fill="#707070" stroke="#404040" stroke-width="0.7"/>
  <rect x="37" y="18" width="2"  height="4"  rx="0.8" fill="#8b5e1c" stroke="#5a3800" stroke-width="0.6"/>

  <!-- 耳（とがった大きな耳） -->
  <path d="M9,18 Q4,14 6,10 Q8,8 11,14 Z"  fill="#4a7a28" stroke="#2a5010" stroke-width="1"/>
  <path d="M39,18 Q44,14 42,10 Q40,8 37,14 Z" fill="#4a7a28" stroke="#2a5010" stroke-width="1"/>

  <!-- 頭（緑色SD） -->
  <circle cx="24" cy="18" r="13" fill="#5a8a30" stroke="#304010" stroke-width="1.3"/>

  <!-- 髪（ボサボサ） -->
  <path d="M12,15 Q11,6 18,4 Q24,2 30,4 Q37,6 36,15" fill="#3a5a18" stroke="#2a4010" stroke-width="0.8"/>
  <!-- ボサボサ毛 -->
  <path d="M14,12 L12,4  L16,10 Z" fill="#3a5a18" stroke="#2a4010" stroke-width="0.6"/>
  <path d="M20,9  L21,2  L26,2  L25,9 Z" fill="#3a5a18" stroke="#2a4010" stroke-width="0.6"/>
  <path d="M34,12 L36,4  L32,10 Z" fill="#3a5a18" stroke="#2a4010" stroke-width="0.6"/>

  <!-- 目（細く邪悪な赤い目） -->
  <!-- 目のベース白 -->
  <ellipse cx="18.5" cy="20" rx="5"   ry="4"   fill="#ffeecc" stroke="#202020" stroke-width="1"/>
  <ellipse cx="29.5" cy="20" rx="5"   ry="4"   fill="#ffeecc" stroke="#202020" stroke-width="1"/>
  <!-- 赤い虹彩 -->
  <ellipse cx="18.5" cy="20" rx="3.5" ry="3"   fill="#cc1010"/>
  <ellipse cx="29.5" cy="20" rx="3.5" ry="3"   fill="#cc1010"/>
  <!-- 細い瞳孔（横長・蛇目） -->
  <ellipse cx="18.5" cy="20" rx="1.0" ry="2.5" fill="#0a0000"/>
  <ellipse cx="29.5" cy="20" rx="1.0" ry="2.5" fill="#0a0000"/>
  <!-- 赤いハイライト -->
  <ellipse cx="19.8" cy="18.8" rx="1.2" ry="1" fill="rgba(255,180,180,0.7)"/>
  <ellipse cx="30.8" cy="18.8" rx="1.2" ry="1" fill="rgba(255,180,180,0.7)"/>
  <!-- 細い眉（つり上がった） -->
  <path d="M14,16.5 Q18.5,14 22,16.5" stroke="#1a3000" stroke-width="2" fill="none" stroke-linecap="round"/>
  <path d="M26,16.5 Q29.5,14 34,16.5" stroke="#1a3000" stroke-width="2" fill="none" stroke-linecap="round"/>

  <!-- 鼻（鷲鼻） -->
  <path d="M22,23 Q24,25 26,23 Q25,26 24,26 Q23,26 22,23Z" fill="#4a7a28" stroke="#2a5010" stroke-width="0.7"/>

  <!-- 口（にやけた悪い顔） -->
  <path d="M19,27 Q24,31 29,27" stroke="#1a0a00" stroke-width="1.5" fill="none" stroke-linecap="round"/>
  <!-- 牙 -->
  <path d="M20,27 L19.5,30 L22,28Z" fill="white" stroke="#808080" stroke-width="0.5"/>
  <path d="M28,27 L28.5,30 L26,28Z" fill="white" stroke="#808080" stroke-width="0.5"/>
</svg>
