<svg xmlns="http://www.w3.org/2000/svg" viewBox="0 0 48 48">
  <ellipse cx="24" cy="46" rx="14" ry="3" fill="rgba(20,0,30,0.4)"/>
  <!-- 脚（4本） -->
  <path d="M16,36 Q13,40 10,44" stroke="#1a0028" stroke-width="3.5" stroke-linecap="round" fill="none"/>
  <path d="M20,38 Q18,42 17,46" stroke="#1a0028" stroke-width="3"   stroke-linecap="round" fill="none"/>
  <path d="M28,38 Q30,42 31,46" stroke="#1a0028" stroke-width="3"   stroke-linecap="round" fill="none"/>
  <path d="M32,36 Q35,40 38,44" stroke="#1a0028" stroke-width="3.5" stroke-linecap="round" fill="none"/>
  <!-- 蹄 -->
  <ellipse cx="10" cy="44" rx="2.5" ry="1.5" fill="#0a0014"/>
  <ellipse cx="17" cy="46" rx="2"   ry="1.2" fill="#0a0014"/>
  <ellipse cx="31" cy="46" rx="2"   ry="1.2" fill="#0a0014"/>
  <ellipse cx="38" cy="44" rx="2.5" ry="1.5" fill="#0a0014"/>
  <!-- 尻尾（炎状） -->
  <path d="M30,32 Q38,28 42,22 Q44,16 40,14" stroke="#440088" stroke-width="3" fill="none" stroke-linecap="round"/>
  <path d="M40,14 Q42,10 40,8"  stroke="#6600aa" stroke-width="2" fill="none" stroke-linecap="round"/>
  <path d="M40,14 Q44,12 44,16" stroke="#6600aa" stroke-width="1.5" fill="none" stroke-linecap="round"/>
  <!-- 体 -->
  <ellipse cx="22" cy="30" rx="14" ry="10" fill="#1a0028" stroke="#3a0060" stroke-width="1.5"/>
  <!-- 体の紋様 -->
  <path d="M10,28 Q16,24 22,26 Q28,24 34,28" stroke="#4400aa" stroke-width="0.8" fill="none" opacity="0.6"/>
  <path d="M10,32 Q16,28 22,30 Q28,28 34,32" stroke="#4400aa" stroke-width="0.8" fill="none" opacity="0.5"/>
  <!-- たてがみ（炎） -->
  <path d="M14,18 Q10,12 12,6"  stroke="#440088" stroke-width="3" fill="none" stroke-linecap="round"/>
  <path d="M18,16 Q16,10 18,4"  stroke="#550099" stroke-width="2.5" fill="none" stroke-linecap="round"/>
  <path d="M22,14 Q22,8 24,2"   stroke="#440088" stroke-width="2.5" fill="none" stroke-linecap="round"/>
  <circle cx="12" cy="6"  r="2.5" fill="#6600cc"/>
  <circle cx="18" cy="4"  r="2"   fill="#7700dd"/>
  <circle cx="24" cy="2"  r="2"   fill="#6600cc"/>
  <!-- 首 -->
  <path d="M14,22 Q16,16 22,14" stroke="#1a0028" stroke-width="5" stroke-linecap="round" fill="none"/>
  <!-- 頭 -->
  <ellipse cx="22" cy="16" rx="9" ry="7" fill="#200030" stroke="#3a0060" stroke-width="1.4"/>
  <!-- 耳 -->
  <polygon points="16,12 13,6 19,11" fill="#1a0028" stroke="#3a0060" stroke-width="1"/>
  <polygon points="26,11 27,5 30,11" fill="#1a0028" stroke="#3a0060" stroke-width="1"/>
  <!-- 目（紫に燃える） -->
  <ellipse cx="18" cy="15" rx="3"   ry="2.5" fill="#0a0010"/>
  <ellipse cx="26" cy="15" rx="3"   ry="2.5" fill="#0a0010"/>
  <ellipse cx="18" cy="15" rx="1.8" ry="1.5" fill="#8800ff"/>
  <ellipse cx="26" cy="15" rx="1.8" ry="1.5" fill="#8800ff"/>
  <circle cx="18.8" cy="14.5" r="0.7" fill="#cc88ff"/>
  <circle cx="26.8" cy="14.5" r="0.7" fill="#cc88ff"/>
  <!-- 鼻腔 -->
  <ellipse cx="20" cy="19" rx="1.5" ry="1" fill="#0a0010"/>
  <ellipse cx="26" cy="19" rx="1.5" ry="1" fill="#0a0010"/>
</svg>
