<svg xmlns="http://www.w3.org/2000/svg" viewBox="0 0 48 48">
  <ellipse cx="24" cy="46" rx="9" ry="2.5" fill="rgba(0,0,0,0.2)"/>
  <line x1="18" y1="24" x2="4" y2="17" stroke="#1a4a00" stroke-width="2" stroke-linecap="round"/>
  <line x1="17" y1="26" x2="2" y2="25" stroke="#1a4a00" stroke-width="2" stroke-linecap="round"/>
  <line x1="17" y1="28" x2="3" y2="34" stroke="#1a4a00" stroke-width="2" stroke-linecap="round"/>
  <line x1="18" y1="30" x2="5" y2="40" stroke="#1a4a00" stroke-width="2" stroke-linecap="round"/>
  <line x1="30" y1="24" x2="44" y2="17" stroke="#1a4a00" stroke-width="2" stroke-linecap="round"/>
  <line x1="31" y1="26" x2="46" y2="25" stroke="#1a4a00" stroke-width="2" stroke-linecap="round"/>
  <line x1="31" y1="28" x2="45" y2="34" stroke="#1a4a00" stroke-width="2" stroke-linecap="round"/>
  <line x1="30" y1="30" x2="43" y2="40" stroke="#1a4a00" stroke-width="2" stroke-linecap="round"/>
  <!-- 腹部 -->
  <ellipse cx="24" cy="33" rx="10" ry="11" fill="#1a5c00" stroke="#0a3000" stroke-width="1.4"/>
  <!-- 毒のマーク（砂時計） -->
  <path d="M19,26 L29,26 L24,33 L29,40 L19,40 L24,33Z" fill="#55ff00" opacity="0.5"/>
  <!-- 頭胸部 -->
  <ellipse cx="24" cy="19" rx="7.5" ry="6.5" fill="#226600" stroke="#0a3000" stroke-width="1.2"/>
  <!-- 牙（毒液） -->
  <line x1="21" y1="24" x2="19" y2="29" stroke="#aaff44" stroke-width="2" stroke-linecap="round"/>
  <line x1="27" y1="24" x2="29" y2="29" stroke="#aaff44" stroke-width="2" stroke-linecap="round"/>
  <circle cx="19" cy="29" r="2" fill="#aaff44" opacity="0.7"/>
  <circle cx="29" cy="29" r="2" fill="#aaff44" opacity="0.7"/>
  <!-- 目 -->
  <circle cx="20" cy="16" r="2.2" fill="#88ff00"/>
  <circle cx="24" cy="14" r="2.2" fill="#88ff00"/>
  <circle cx="28" cy="16" r="2.2" fill="#88ff00"/>
  <circle cx="21" cy="20" r="1.6" fill="#66dd00"/>
  <circle cx="27" cy="20" r="1.6" fill="#66dd00"/>
  <circle cx="20" cy="16" r="0.9" fill="black"/>
  <circle cx="24" cy="14" r="0.9" fill="black"/>
  <circle cx="28" cy="16" r="0.9" fill="black"/>
</svg>
