<svg xmlns="http://www.w3.org/2000/svg" viewBox="0 0 48 48">
  <ellipse cx="24" cy="46" rx="13" ry="3" fill="rgba(0,0,0,0.2)"/>
  <!-- 脚（左） -->
  <line x1="16" y1="30" x2="6"  y2="26" stroke="#7a6a5a" stroke-width="2.2" stroke-linecap="round"/>
  <line x1="15" y1="32" x2="4"  y2="32" stroke="#7a6a5a" stroke-width="2.2" stroke-linecap="round"/>
  <line x1="15" y1="34" x2="5"  y2="38" stroke="#7a6a5a" stroke-width="2.2" stroke-linecap="round"/>
  <!-- 脚（右） -->
  <line x1="32" y1="30" x2="42" y2="26" stroke="#7a6a5a" stroke-width="2.2" stroke-linecap="round"/>
  <line x1="33" y1="32" x2="44" y2="32" stroke="#7a6a5a" stroke-width="2.2" stroke-linecap="round"/>
  <line x1="33" y1="34" x2="43" y2="38" stroke="#7a6a5a" stroke-width="2.2" stroke-linecap="round"/>
  <!-- ハサミ（左） -->
  <path d="M14,26 Q6,20 3,16 Q7,12 10,16 Q12,20 15,24Z" fill="#8a7a6a" stroke="#5a4a3a" stroke-width="1.2"/>
  <path d="M14,26 Q5,26 3,30 Q7,32 11,28Z" fill="#8a7a6a" stroke="#5a4a3a" stroke-width="1.2"/>
  <!-- ハサミ（右） -->
  <path d="M34,26 Q42,20 45,16 Q41,12 38,16 Q36,20 33,24Z" fill="#8a7a6a" stroke="#5a4a3a" stroke-width="1.2"/>
  <path d="M34,26 Q43,26 45,30 Q41,32 37,28Z" fill="#8a7a6a" stroke="#5a4a3a" stroke-width="1.2"/>
  <!-- 甲羅（岩のような） -->
  <ellipse cx="24" cy="30" rx="14" ry="11" fill="#8a7a6a" stroke="#5a4a3a" stroke-width="1.5"/>
  <!-- 岩の質感 -->
  <path d="M12,26 Q16,22 24,24 Q32,22 36,26" stroke="#5a4a3a" stroke-width="1" fill="none"/>
  <path d="M14,32 Q18,28 24,30 Q30,28 34,32" stroke="#5a4a3a" stroke-width="1" fill="none"/>
  <ellipse cx="20" cy="28" rx="4" ry="3" fill="#9a8a7a" opacity="0.5"/>
  <ellipse cx="30" cy="32" rx="3" ry="2.5" fill="#9a8a7a" opacity="0.5"/>
  <!-- 目（茎の上） -->
  <line x1="19" y1="22" x2="17" y2="16" stroke="#5a4a3a" stroke-width="1.5"/>
  <line x1="29" y1="22" x2="31" y2="16" stroke="#5a4a3a" stroke-width="1.5"/>
  <circle cx="17" cy="15" r="3.5" fill="#5a4a3a" stroke="#3a2a1a" stroke-width="1"/>
  <circle cx="31" cy="15" r="3.5" fill="#5a4a3a" stroke="#3a2a1a" stroke-width="1"/>
  <circle cx="17" cy="14.5" r="1.8" fill="#ff8800"/>
  <circle cx="31" cy="14.5" r="1.8" fill="#ff8800"/>
  <circle cx="17.6" cy="14" r="0.7" fill="white"/>
  <circle cx="31.6" cy="14" r="0.7" fill="white"/>
</svg>
