<svg xmlns="http://www.w3.org/2000/svg" viewBox="0 0 48 48">
  <ellipse cx="24" cy="46" rx="13" ry="3.5" fill="rgba(0,0,0,0.25)"/>
  <!-- 足 -->
  <rect x="14" y="36" width="8" height="10" rx="2" fill="#7a7068" stroke="#4a4038" stroke-width="1.5"/>
  <rect x="26" y="36" width="8" height="10" rx="2" fill="#7a7068" stroke="#4a4038" stroke-width="1.5"/>
  <!-- 腕（左） -->
  <rect x="6"  y="18" width="9" height="16" rx="3" fill="#7a7068" stroke="#4a4038" stroke-width="1.4"/>
  <rect x="4"  y="30" width="11" height="8" rx="2" fill="#888078" stroke="#4a4038" stroke-width="1.2"/>
  <!-- 腕（右） -->
  <rect x="33" y="18" width="9" height="16" rx="3" fill="#7a7068" stroke="#4a4038" stroke-width="1.4"/>
  <rect x="33" y="30" width="11" height="8" rx="2" fill="#888078" stroke="#4a4038" stroke-width="1.2"/>
  <!-- 胴体 -->
  <rect x="13" y="16" width="22" height="22" rx="3" fill="#8a8078" stroke="#4a4038" stroke-width="1.6"/>
  <!-- 胸の石板模様 -->
  <rect x="16" y="19" width="7" height="8" rx="1" fill="#7a7068" stroke="#4a4038" stroke-width="0.8"/>
  <rect x="25" y="19" width="7" height="8" rx="1" fill="#7a7068" stroke="#4a4038" stroke-width="0.8"/>
  <rect x="16" y="29" width="16" height="6" rx="1" fill="#7a7068" stroke="#4a4038" stroke-width="0.8"/>
  <!-- 亀裂 -->
  <path d="M24,16 Q22,22 25,28 Q23,32 24,38" stroke="#4a4038" stroke-width="1" fill="none" opacity="0.7"/>
  <!-- 首 -->
  <rect x="19" y="10" width="10" height="7" rx="2" fill="#8a8078" stroke="#4a4038" stroke-width="1.3"/>
  <!-- 頭 -->
  <rect x="12" y="4"  width="24" height="18" rx="4" fill="#9a9088" stroke="#4a4038" stroke-width="1.6"/>
  <!-- 顔の岩模様 -->
  <path d="M12,12 L36,12" stroke="#4a4038" stroke-width="1" opacity="0.5"/>
  <!-- 目（緑に光る） -->
  <rect x="16" y="8"  width="6" height="5" rx="1" fill="#003300"/>
  <rect x="26" y="8"  width="6" height="5" rx="1" fill="#003300"/>
  <rect x="17" y="9"  width="4" height="3" rx="1" fill="#00cc44"/>
  <rect x="27" y="9"  width="4" height="3" rx="1" fill="#00cc44"/>
  <!-- 口（割れ目） -->
  <path d="M17,17 Q24,20 31,17" stroke="#4a4038" stroke-width="2" fill="none"/>
  <!-- 苔 -->
  <ellipse cx="14" cy="6"  rx="3" ry="2" fill="#3a6a20" opacity="0.6"/>
  <ellipse cx="36" cy="10" rx="2" ry="1.5" fill="#3a6a20" opacity="0.6"/>
</svg>
