<svg xmlns="http://www.w3.org/2000/svg" viewBox="0 0 48 48">
  <ellipse cx="24" cy="46" rx="11" ry="2.5" fill="rgba(0,0,0,0.18)"/>
  <!-- 尻尾 -->
  <path d="M36,30 Q44,24 46,18 Q46,14 42,14" fill="none" stroke="#7a7878" stroke-width="3" stroke-linecap="round"/>
  <!-- 後ろ足 -->
  <path d="M18,38 Q16,44 14,46" stroke="#6a6868" stroke-width="3" stroke-linecap="round" fill="none"/>
  <path d="M28,38 Q30,44 32,46" stroke="#6a6868" stroke-width="3" stroke-linecap="round" fill="none"/>
  <!-- 前足 -->
  <path d="M14,32 Q11,38 10,44" stroke="#6a6868" stroke-width="2.5" stroke-linecap="round" fill="none"/>
  <path d="M22,34 Q22,40 21,44" stroke="#6a6868" stroke-width="2.5" stroke-linecap="round" fill="none"/>
  <!-- 体 -->
  <ellipse cx="24" cy="30" rx="14" ry="9" fill="#808080" stroke="#505050" stroke-width="1.3"/>
  <!-- 背の毛 -->
  <path d="M12,24 Q18,20 24,22 Q30,20 36,24" stroke="#505050" stroke-width="1.5" fill="none"/>
  <!-- 首 -->
  <path d="M16,24 Q14,18 16,14 Q20,10 24,10 L26,22Z" fill="#808080" stroke="#505050" stroke-width="1.2"/>
  <!-- 頭 -->
  <ellipse cx="20" cy="14" rx="10" ry="8" fill="#888888" stroke="#505050" stroke-width="1.3"/>
  <!-- 耳 -->
  <polygon points="14,10 12,3 18,9" fill="#808080" stroke="#505050" stroke-width="1"/>
  <polygon points="22,9 24,3 26,9" fill="#808080" stroke="#505050" stroke-width="1"/>
  <polygon points="14.5,9.5 13,5 17.5,9" fill="#cc9999" opacity="0.7"/>
  <polygon points="22.5,8.5 24,4.5 25.5,8.5" fill="#cc9999" opacity="0.7"/>
  <!-- 鼻 -->
  <ellipse cx="12" cy="16" rx="3.5" ry="2.5" fill="#333" stroke="#222" stroke-width="0.8"/>
  <!-- 目 -->
  <ellipse cx="16" cy="11" rx="3" ry="2.5" fill="#ffd700"/>
  <ellipse cx="24" cy="11" rx="3" ry="2.5" fill="#ffd700"/>
  <ellipse cx="16" cy="11" rx="1.5" ry="2" fill="#1a1a00"/>
  <ellipse cx="24" cy="11" rx="1.5" ry="2" fill="#1a1a00"/>
  <circle cx="16.8" cy="10.2" r="0.7" fill="white"/>
  <circle cx="24.8" cy="10.2" r="0.7" fill="white"/>
  <!-- 口 -->
  <path d="M11,18 Q14,21 17,18" stroke="#333" stroke-width="1" fill="none"/>
</svg>
