<svg xmlns="http://www.w3.org/2000/svg" viewBox="0 0 48 48">
  <!-- 暗い光彩 -->
  <ellipse cx="24" cy="26" rx="17" ry="19" fill="rgba(30,20,60,0.4)"/>
  <!-- 裾のひらひら（暗い） -->
  <path d="M8,38 Q11,44 14,38 Q17,44 20,38 Q23,44 26,38 Q29,44 32,38 Q35,44 38,38 Q40,42 42,38 L40,22 Q34,38 24,20 Q14,38 8,22Z"
        fill="rgba(30,20,80,0.85)" stroke="rgba(100,60,180,0.5)" stroke-width="1"/>
  <!-- ローブ本体 -->
  <path d="M8,26 Q8,8 24,6 Q40,8 40,26 L40,38 Q36,30 30,34 Q24,38 18,34 Q12,30 8,38Z"
        fill="rgba(20,10,50,0.92)" stroke="rgba(100,60,200,0.7)" stroke-width="1.3"/>
  <!-- 魔力のオーラ -->
  <ellipse cx="24" cy="18" rx="11" ry="13" fill="rgba(80,40,160,0.2)"/>
  <!-- フード内の暗闇 -->
  <ellipse cx="24" cy="14" rx="8" ry="7" fill="rgba(5,0,20,0.95)"/>
  <!-- 目（冷たい光） -->
  <ellipse cx="19" cy="14" rx="3.5" ry="4" fill="rgba(100,160,255,0.9)"/>
  <ellipse cx="29" cy="14" rx="3.5" ry="4" fill="rgba(100,160,255,0.9)"/>
  <ellipse cx="19" cy="14" rx="2" ry="2.5" fill="rgba(200,230,255,0.95)"/>
  <ellipse cx="29" cy="14" rx="2" ry="2.5" fill="rgba(200,230,255,0.95)"/>
  <!-- 爪のような手 -->
  <path d="M10,30 Q6,26 4,22" stroke="rgba(80,50,150,0.8)" stroke-width="2" fill="none" stroke-linecap="round"/>
  <path d="M4,22 Q2,18 4,16" stroke="rgba(80,50,150,0.6)" stroke-width="1.5" fill="none"/>
  <path d="M4,22 Q1,20 2,17" stroke="rgba(80,50,150,0.6)" stroke-width="1.5" fill="none"/>
  <path d="M38,30 Q42,26 44,22" stroke="rgba(80,50,150,0.8)" stroke-width="2" fill="none" stroke-linecap="round"/>
  <path d="M44,22 Q46,18 44,16" stroke="rgba(80,50,150,0.6)" stroke-width="1.5" fill="none"/>
  <!-- 浮遊する闇の粒 -->
  <circle cx="8"  cy="12" r="1.5" fill="rgba(100,60,200,0.7)"/>
  <circle cx="40" cy="16" r="1.2" fill="rgba(100,60,200,0.7)"/>
  <circle cx="12" cy="6"  r="1"   fill="rgba(100,60,200,0.5)"/>
</svg>
