<svg xmlns="http://www.w3.org/2000/svg" viewBox="0 0 64 64">
    <rect x="6" y="22" width="52" height="36" fill="#78350f" stroke="#451a03" stroke-width="1.2"/>
    <path d="M4 22 L60 22 L60 16 Q60 12 56 12 L8 12 Q4 12 4 16 Z" fill="#b91c1c"/>
    <path d="M4 12 Q12 12 12 22 Q12 12 20 12 Q20 22 28 22 Q28 12 36 12 Q36 22 44 22 Q44 12 52 12 Q52 22 60 22 L60 16 Q60 12 56 12 L8 12 Q4 12 4 16 Z" fill="#f59e0b"/>
    <rect x="14" y="30" width="12" height="14" fill="#1e293b" stroke="#0f172a" stroke-width="1"/>
    <rect x="32" y="30" width="18" height="20" fill="#1e293b" stroke="#0f172a" stroke-width="1"/>
    <rect x="36" y="34" width="4" height="6" fill="#fde68a"/>
    <rect x="42" y="34" width="4" height="6" fill="#fde68a"/>
    <rect x="18" y="34" width="4" height="6" fill="#fde68a"/>
    <rect x="6" y="56" width="52" height="4" fill="#451a03"/>
  </svg>